<svg width="101" height="100" viewBox="0 0 101 100" fill="none" xmlns="http://www.w3.org/2000/svg">
<g clip-path="url(#clip0_383_1927)">
<path d="M79.334 21H21.334C19.5064 21 18.334 22.1589 18.334 24V69C18.334 70.8411 19.5064 72 21.334 72H42.334L40.334 79C39.9381 80.4187 40.8719 82 42.334 82H58.334C59.7961 82 60.7298 80.4187 60.334 79L58.334 72H79.334C81.1616 72 82.334 70.8411 82.334 69V24C82.334 22.1589 81.1616 21 79.334 21Z" fill="#CBE3FA"/>
<path d="M79.334 21C81.1623 21 82.334 22.1717 82.334 24V25C82.334 25.9141 81.2481 27 80.334 27H63.334C42.615 27 26.1707 42.4863 25.334 63C25.2977 63.8901 24.2249 65 23.334 65H18.334V24C18.334 22.1717 19.5057 21 21.334 21H79.334Z" fill="#EEF7FF"/>
<path d="M18.334 65V69C18.334 70.8771 19.5064 72 21.334 72H42.334L40.334 79C39.9381 80.4464 40.8719 82 42.334 82H58.334C59.7961 82 60.7298 80.4464 60.334 79L58.334 72H79.334C81.1616 72 82.334 70.8771 82.334 69V65H18.334Z" fill="#B5D5F5"/>
<path d="M43.3348 82H42.3348C40.8019 82 39.9198 80.4586 40.3348 79L42.3348 72H48.3348L46.3348 79C45.7619 81.0134 44.8705 82 43.3348 82Z" fill="#CBE3FA"/>
<path d="M25.334 67V70C25.334 70.9278 24.2618 72 23.334 72H21.334C19.4783 72 18.334 70.8557 18.334 69V65H23.334C24.2618 65 25.334 66.0722 25.334 67Z" fill="#CBE3FA"/>
<path d="M58.3335 74H43.3335C42.5857 74 42.1306 73.638 42.3335 73V72H59.3335V73C59.5365 73.638 59.0814 74 58.3335 74Z" fill="#9EC7F0"/>
<path d="M63.334 58C63.3518 58 58.3521 56.0063 58.334 56C55.8905 55.159 54.334 52.4854 54.334 50C58.3304 48.3674 61.334 44.5686 61.334 40V40C63.0802 40 64.334 38.437 64.334 37V27C64.3381 22.1418 60.2448 18.0041 55.334 18H47.334C43.6982 17.9986 40.6871 20.661 39.334 24C37.6669 23.9986 36.334 25.351 36.334 27V37C36.3326 38.4987 37.8026 39.9986 39.334 40V40C39.334 44.9664 42.4569 48.3987 46.334 50C46.3237 52.5016 44.7803 55.1579 42.334 56C42.3184 56.0053 37.2935 58 37.334 58C34.9211 58.8334 33.334 60.4561 33.334 63V65H67.334V63C67.334 60.4561 65.7469 58.8334 63.334 58Z" fill="#FFEBD2"/>
<path d="M52.334 49C53.6528 49.1568 53.6504 50.8261 52.334 51C45.319 51.9262 39.334 46.5289 39.334 40V34C39.334 33.6579 39.9937 33.1176 40.334 33C40.6032 32.9055 40.0789 33.1215 40.334 33C41.0908 32.6393 42.334 33.1988 42.334 34V38C42.3341 43.485 46.6108 48.3193 52.334 49Z" fill="#FFF3E4"/>
<path d="M54.3348 53C52.0242 53.8799 49.8218 53.9476 47.3348 53C46.7906 52.7926 46.2218 52.6231 46.3348 52C46.4133 51.5672 46.3324 51.4523 46.3348 51C49.085 52.2611 52.5646 52.2563 55.3348 51C55.3449 51.1181 55.2031 51.2839 55.3348 52C55.4492 52.6219 54.8781 52.7931 54.3348 53Z" fill="#FFD9AD"/>
<path d="M64.334 27V37C64.334 38.4328 63.1038 40 61.334 40V35C61.334 34.5182 60.8202 33.9552 60.334 34C54.5947 34.5297 49.6812 33.0065 45.334 30C44.923 29.7158 43.5676 29.5617 43.334 30C42.4608 31.6387 41.0473 33.3757 39.334 34C39.0053 34.1198 39.334 33.6542 39.334 34V40V40C37.7873 39.9986 36.3326 38.4988 36.334 37V27C36.334 25.3509 37.6502 23.9986 39.334 24C40.7007 20.6608 43.6618 17.9986 47.334 18H55.334C60.294 18.0041 64.3381 22.1415 64.334 27Z" fill="#585966"/>
<path d="M56.334 17.9999C58.1372 18.0587 58.1382 20.989 56.334 20.9999C55.3123 21.0062 53.8081 21.0117 52.334 20.9999C48.8555 20.9725 45.8149 22.9504 44.334 25.9999C44.1913 26.2937 43.6591 25.9451 43.334 25.9999C41.8993 26.2413 40.334 27.5252 40.334 28.9999V32.9999C40.334 33.4098 40.7561 33.8436 40.334 33.9999C40.0047 34.1188 39.334 33.6541 39.334 33.9999V39.9999V39.9999C37.7886 39.9986 36.3326 38.4987 36.334 36.9999V26.9999C36.334 25.3509 37.6517 23.9986 39.334 23.9999C40.6995 20.6609 44.665 17.9986 48.334 17.9999C48.334 17.9999 56.2363 17.9968 56.334 17.9999Z" fill="#6E6F80"/>
<path d="M67.334 63V65H33.334V63C33.334 60.5244 34.9211 58.811 37.334 58C37.3003 58 42.3145 56.0065 42.334 56C43.1634 55.7221 43.7266 55.5597 44.334 55C45.912 61.0361 54.7546 61.0428 56.334 55C56.9413 55.5584 57.5045 55.7221 58.334 56C58.3477 56.0045 63.3477 58 63.334 58C65.7469 58.8112 67.334 60.5244 67.334 63Z" fill="#FF6D7A"/>
<path d="M45.334 56C45.656 56.5802 44.9875 57.7863 44.334 58C44.3194 58.0048 41.3486 59 41.334 59C38.1029 60.0622 37.4805 62.5755 37.334 64C37.2778 64.5469 36.9132 65 36.334 65H33.334V63C33.334 60.5243 34.8669 58.811 37.334 58C37.2996 58 42.3141 56.0065 42.334 56C43.182 55.7221 43.713 55.5598 44.334 55C44.4709 55.5135 45.0977 55.574 45.334 56Z" fill="#FF8C95"/>
<path d="M59.3349 51.9999C58.372 51.9999 57.6582 50.7115 58.3349 49.9999C60.4735 47.7506 62.7172 45.048 63.3349 41.9999C63.4573 41.396 63.7379 40.8758 64.3349 40.9999C64.9316 41.1238 65.4573 41.396 65.3349 41.9999C64.6331 45.4624 62.7633 49.4457 60.3349 51.9999C60.1186 52.2276 59.6243 51.9999 59.3349 51.9999Z" fill="#585966"/>
<path d="M67.334 36V41C67.334 42.3054 65.7336 42.9461 64.334 43C64.2323 43.0039 64.7151 43 62.334 43C61.6713 43 61.334 42.6116 61.334 42V35C61.334 34.3884 61.6713 34 62.334 34H64.334C65.7887 34 67.334 34.6575 67.334 36Z" fill="#80AAFF"/>
<path d="M64.334 35.9999C63.5201 35.9999 63.334 36.4493 63.334 36.9999V41.9999C63.334 42.4124 62.7721 42.9999 62.334 42.9999V42.9999C61.6865 42.9999 61.334 42.6097 61.334 41.9999V34.9999C61.334 34.3901 61.6865 33.9999 62.334 33.9999C64.4856 33.9999 63.9991 33.9408 64.334 33.9999C65.2675 34.1644 65.2836 35.9999 64.334 35.9999Z" fill="#9CBCFF"/>
<path d="M39.334 35V42C39.334 42.6117 38.9967 43 38.334 43H36.334C34.8793 43 33.334 42.3428 33.334 41V36C33.334 34.6572 34.8793 34 36.334 34H38.334C38.9967 34 39.334 34.3883 39.334 35Z" fill="#80AAFF"/>
<path d="M39.334 35C39.334 35.3006 38.6653 36 38.334 36C36.7225 36 36.3217 36.7399 36.334 38C36.3341 38.0083 36.341 39.7665 36.334 41C36.325 42.58 33.334 42.7378 33.334 41V36C33.334 34.6803 34.8793 34 36.334 34H38.334C38.9967 34.0001 39.334 34.3988 39.334 35Z" fill="#9CBCFF"/>
</g>
<circle cx="50.334" cy="50" r="49.5" stroke="#119FC3"/>
<defs>
<clipPath id="clip0_383_1927">
<rect width="64" height="64.0014" fill="white" transform="translate(18.334 17.9985)"/>
</clipPath>
</defs>
</svg>
