<svg width="101" height="100" viewBox="0 0 101 100" fill="none" xmlns="http://www.w3.org/2000/svg">
<path d="M67.912 81.9998H30.9947C27.7269 81.9998 24.666 79.1726 24.666 76.0921V26.8613C24.666 25.8329 25.6846 24.8921 26.7756 24.8921H72.1311C73.222 24.8921 74.2406 25.8329 74.2406 26.8613V76.0921C74.2405 79.1726 71.1797 81.9998 67.912 81.9998Z" fill="#DFEEFA"/>
<path d="M72.1309 24.8926H48.9258V82.0003H67.9118C71.2491 82.0003 74.2405 79.173 74.2405 76.0926V26.8618C74.2403 25.8334 73.2452 24.8926 72.1309 24.8926Z" fill="#C9DFF7"/>
<path d="M33.1037 31.7846C31.9387 31.7846 30.9941 30.8285 30.9941 29.8154V19.9692C30.9941 18.9561 31.9387 18 33.1037 18C34.2687 18 35.2133 18.9561 35.2133 19.9692V29.8154C35.2133 30.8285 34.2687 31.7846 33.1037 31.7846Z" fill="#606A70"/>
<path d="M41.5412 31.7846C40.3762 31.7846 39.4316 30.8285 39.4316 29.8154V19.9692C39.4316 18.9561 40.3762 18 41.5412 18C42.7062 18 43.6508 18.9561 43.6508 19.9692V29.8154C43.6508 30.8285 42.7062 31.7846 41.5412 31.7846Z" fill="#606A70"/>
<path d="M48.926 31.7846C47.7609 31.7846 46.8164 30.8285 46.8164 29.8154V19.9692C46.8164 18.9561 47.7609 18 48.926 18C50.091 18 51.0355 18.9561 51.0355 19.9692V29.8154C51.0355 30.8285 50.091 31.7846 48.926 31.7846Z" fill="#606A70"/>
<path d="M57.3635 31.7846C56.1984 31.7846 55.2539 30.8285 55.2539 29.8154V19.9692C55.2539 18.9561 56.1984 18 57.3635 18C58.5285 18 59.473 18.9561 59.473 19.9692V29.8154C59.473 30.8285 58.5286 31.7846 57.3635 31.7846Z" fill="#414952"/>
<path d="M64.7463 31.7846C63.5812 31.7846 62.6367 30.8285 62.6367 29.8154V19.9692C62.6367 18.9561 63.5812 18 64.7463 18C65.9113 18 66.8558 18.9561 66.8558 19.9692V29.8154C66.8558 30.8285 65.9113 31.7846 64.7463 31.7846Z" fill="#414952"/>
<path d="M51.0353 29.8154V19.9692C51.0353 18.9561 50.0908 18 48.9258 18V31.7846C50.0908 31.7846 51.0353 30.8285 51.0353 29.8154Z" fill="#414952"/>
<path d="M49.98 42.6152H35.2131C34.1176 42.6152 33.1035 41.7335 33.1035 40.646C33.1035 39.5584 34.1176 38.6768 35.2131 38.6768H49.98C51.0755 38.6768 52.0895 39.5584 52.0895 40.646C52.0895 41.7337 51.0755 42.6152 49.98 42.6152Z" fill="#82A0D2"/>
<path d="M64.7469 50.4922H35.2131C34.1227 50.4922 33.1035 49.6105 33.1035 48.5229C33.1035 47.4354 34.1227 46.5537 35.2131 46.5537H64.7469C65.8373 46.5537 66.8564 47.4354 66.8564 48.5229C66.8564 49.6105 65.8373 50.4922 64.7469 50.4922Z" fill="#82A0D2"/>
<path d="M60.5278 57.3843H35.2131C34.105 57.3843 33.1035 56.5026 33.1035 55.415C33.1035 54.3275 34.105 53.4458 35.2131 53.4458H60.5278C61.6359 53.4458 62.6373 54.3275 62.6373 55.415C62.6373 56.5026 61.6359 57.3843 60.5278 57.3843Z" fill="#82A0D2"/>
<path d="M53.1443 65.2612H35.2131C34.1368 65.2612 33.1035 64.3795 33.1035 63.292C33.1035 62.2044 34.1368 61.3228 35.2131 61.3228H53.1443C54.2206 61.3228 55.2539 62.2044 55.2539 63.292C55.2539 64.3795 54.2206 65.2612 53.1443 65.2612Z" fill="#82A0D2"/>
<path d="M49.98 72.1538H35.2131C34.1149 72.1538 33.1035 71.2721 33.1035 70.1846C33.1035 69.097 34.1149 68.2153 35.2131 68.2153H49.98C51.0782 68.2153 52.0895 69.097 52.0895 70.1846C52.0895 71.2721 51.0782 72.1538 49.98 72.1538Z" fill="#82A0D2"/>
<path d="M52.09 70.1846C52.09 69.097 51.1455 68.2153 49.9805 68.2153V72.1538C51.1455 72.1538 52.09 71.2721 52.09 70.1846Z" fill="#9EBBDB"/>
<path d="M53.1448 61.3228H49.9805V65.2612H53.1448C54.1783 65.2612 55.2544 64.3795 55.2544 63.292C55.2544 62.2043 54.1783 61.3228 53.1448 61.3228Z" fill="#5877A6"/>
<path d="M60.5283 53.4458H49.9805V57.3843H60.5283C61.6609 57.3843 62.6378 56.5026 62.6378 55.415C62.6378 54.3275 61.6609 53.4458 60.5283 53.4458Z" fill="#5877A6"/>
<path d="M64.7474 46.5537H49.9805V50.4922H64.7474C65.8378 50.4922 66.8569 49.6105 66.8569 48.5229C66.8569 47.4354 65.8378 46.5537 64.7474 46.5537Z" fill="#5877A6"/>
<path d="M49.9805 38.6768V42.6152C51.1184 42.6152 52.09 41.7335 52.09 40.646C52.09 39.5584 51.1184 38.6768 49.9805 38.6768Z" fill="#5877A6"/>
<path d="M49.9803 72.154C49.4509 72.154 49.3158 71.5344 48.9255 71.1694C48.3251 70.6081 47.5194 69.923 47.8707 69.2002L53.1446 59.354C52.9717 59.5145 53.2481 59.1411 53.1446 59.354C53.4332 59.0861 55.2542 57.3848 55.2542 57.3848L63.6924 65.2617C63.6924 65.2617 61.8722 66.9604 61.5828 67.2309C61.4124 67.3903 61.8082 67.1351 61.5828 67.2309L51.035 72.154C50.7647 72.2689 50.265 72.154 49.9803 72.154Z" fill="#FFEDD6"/>
<path d="M49.9806 72.154C50.2583 72.154 50.7716 72.27 51.0353 72.154L61.5831 67.2309C61.417 67.3918 61.803 67.1343 61.5831 67.2309C61.8654 66.9577 63.6927 65.2617 63.6927 65.2617L59.4736 61.3232L48.9258 71.1694C49.3066 71.5379 49.4644 72.154 49.9806 72.154Z" fill="#FFDAAB"/>
<path d="M53.1445 59.3539L78.4592 35.7231C79.5928 34.6761 81.0754 33.7539 82.6783 33.7539C84.2813 33.7539 85.764 34.6761 86.8975 35.7231C89.2373 37.8844 89.2371 41.4386 86.8975 43.6001L61.5828 67.2308L53.1445 59.3539Z" fill="#FFE645"/>
<path d="M61.5824 67.2308L86.8971 43.6001C89.2388 41.4622 89.2388 37.861 86.8971 35.7231L57.3633 63.2924L61.5824 67.2308Z" fill="#FFB500"/>
<path d="M76.363 37.7496L69.5 44.1025L77.955 51.9291L84.818 45.5762L76.363 37.7496Z" fill="#606A70"/>
<path d="M80.9809 41.2989L74.2402 47.5386L78.4423 51.4283L85.183 45.1887L80.9809 41.2989Z" fill="#414952"/>
<path d="M86.8974 35.7231C85.7631 34.6987 84.2825 33.7539 82.6783 33.7539C81.074 33.7539 79.8 34.4755 78.6655 35.5L76.3496 37.6924L84.7878 45.5693L86.8974 42.6154C89.2391 40.5007 89.2391 37.8377 86.8974 35.7231Z" fill="#FF826E"/>
<path d="M84.7875 45.5693L86.897 43.6001C89.2544 41.5642 89.2544 37.7591 86.897 35.7231L80.5684 41.6308L84.7875 45.5693Z" fill="#FE5857"/>
<path d="M48.9264 67.231L47.8716 69.2002C47.544 69.8763 48.3664 70.6442 48.9264 71.1694C49.2904 71.5109 49.4875 72.154 49.9812 72.154C50.2467 72.154 50.7838 72.2615 51.036 72.154L53.1455 71.1694L48.9264 67.231Z" fill="#416191"/>
<path d="M49.9806 72.154C50.222 72.154 50.8061 72.2564 51.0353 72.154L53.1449 71.1694L51.0353 69.2002L48.9258 71.1694C49.2566 71.4945 49.5319 72.154 49.9806 72.154Z" fill="#28415E"/>
<circle cx="50.666" cy="50" r="49.5" stroke="#119FC3"/>
</svg>
