<svg width="128" height="93" viewBox="0 0 128 93" fill="none" xmlns="http://www.w3.org/2000/svg">
<path d="M122 12H6C2.58477 12 0 14.5642 0 18V87C0 90.4358 2.58477 93 6 93H122C125.415 93 128 90.4358 128 87V18C128 14.5642 125.415 12 122 12Z" fill="#717D94"/>
<path d="M70 83H58V93H70V83Z" fill="#717D94"/>
<path d="M119 76V82C119 83.1045 118.135 84 117 84H10C8.86482 84 8 83.1045 8 82V76L20 70L70 72L111 70L119 76Z" fill="#E6BE8A"/>
<path d="M11 80.0001C28.0434 72.9558 47.228 73.0987 64 81.0001V6.00013C46.675 -2.16186 26.4481 -1.78523 9 6.00013C8.24919 6.33523 8 7.17706 8 8.00013V78.0001C8 79.5002 9.6153 80.5725 11 80.0001Z" fill="#FFEBB7"/>
<path d="M64 81.0001C80.772 73.0985 99.9566 72.9558 117 80.0001C118.385 80.5725 120 79.5002 120 78.0001V8.00013C120 7.17706 119.751 6.33523 119 6.00013C101.552 -1.78523 81.3247 -2.16186 64 6.00013V81.0001Z" fill="#FFD788"/>
<path d="M71.9996 67.0003C71.1616 67.0003 70.2629 65.9111 69.9996 65.0003C69.6748 63.8767 69.9635 63.3532 70.9996 63.0003C72.9912 62.3224 75.9485 61.4657 77.9996 61.0003C79.0609 60.7588 79.7767 61.8453 79.9996 63.0003C80.2226 64.1529 79.0648 64.7588 77.9996 65.0003C76.0735 65.4377 74.8681 66.3643 72.9996 67.0003C72.8035 67.0666 72.1938 67.0003 71.9996 67.0003Z" fill="#717D94"/>
<path d="M112 67.0004C111.797 67.0004 111.205 67.0617 111 67.0004C103.223 64.6742 95.1124 63.385 86.9999 64.0004C85.8486 64.0789 85.0903 63.0807 84.9999 62.0004C84.9112 60.9192 85.8648 60.0865 86.9999 60.0004C95.6578 59.3523 104.72 60.5236 113 63.0004C114.085 63.3252 114.34 64.9661 114 66.0004C113.724 66.839 112.877 67.0004 112 67.0004Z" fill="#717D94"/>
<path d="M111 59C110.799 59 110.202 59.0615 110 59C97.7533 55.2792 85.2464 55.2792 72.9998 59C71.9231 59.3258 70.3335 59.036 69.9998 58C69.6641 56.9631 69.9289 55.3258 70.9998 55C84.0452 51.0371 98.9545 51.0371 112 55C113.071 55.3258 113.336 56.9631 113 58C112.727 58.8409 111.866 59 111 59Z" fill="#717D94"/>
<path d="M72.0008 50C71.1213 50 70.2771 49.8526 70.0008 49C69.6599 47.9483 69.9134 46.3303 71.0008 46C78.6041 43.6939 87.0525 42.6392 95.0008 43C96.1385 43.0526 97.0553 43.8986 97.0008 45C96.9484 46.1034 96.1586 47.0459 95.0008 47C87.5426 46.6599 80.1383 47.8342 73.0008 50C72.7952 50.0621 72.2045 50 72.0008 50Z" fill="#717D94"/>
<path d="M111 50C110.805 50 110.196 50.0624 110 50C107.505 49.2066 105.582 48.4604 103 48C101.926 47.8076 100.809 47.0871 101 46C101.189 44.9138 101.928 43.8076 103 44C105.75 44.4908 109.341 45.1549 112 46C113.039 46.3307 113.326 47.947 113 49C112.735 49.8538 111.841 50 111 50Z" fill="#717D94"/>
<path d="M111 42C110.799 42 110.202 42.0615 110 42C97.7533 38.2786 85.2464 38.2786 72.9998 42C71.9231 42.3238 70.3335 42.0351 69.9998 41C69.6641 39.9629 69.9289 38.3257 70.9998 38C84.0452 34.0365 98.9545 34.0365 112 38C113.071 38.3257 113.336 39.9629 113 41C112.727 41.841 111.866 42 111 42Z" fill="#717D94"/>
<path d="M71.9991 34.0002C71.1031 34.0002 70.2806 32.9104 69.9991 32.0002C69.6518 30.8775 69.8913 30.3529 70.9991 30.0002C75.233 28.6537 80.5866 27.4956 84.9991 27.0002C86.1706 26.8577 86.8718 27.833 86.9991 29.0002C87.1264 30.1698 86.154 30.8713 84.9991 31.0002C80.8578 31.4663 76.9717 32.736 72.9991 34.0002C72.7894 34.0665 72.2067 34.0002 71.9991 34.0002Z" fill="#717D94"/>
<path d="M112 34.0002C111.795 34.0002 111.207 34.0632 111 34.0002C105.134 32.2107 99.1508 31.0938 93.0003 31.0002C91.8517 30.9826 90.9821 30.1141 91.0003 29.0002C91.0185 27.8874 91.9107 26.9352 93.0003 27.0002C99.5505 27.1006 106.752 28.0948 113 30.0002C114.094 30.334 114.343 31.9376 114 33.0002C113.72 33.8619 112.885 34.0002 112 34.0002Z" fill="#717D94"/>
<path d="M71.9993 26C71.1238 26 70.2744 25.8194 69.9993 25C69.66 23.9893 69.9168 22.3175 70.9993 22C79.9604 19.3745 89.6565 18.0305 98.9993 19C100.128 19.1161 101.124 20.9471 100.999 22C100.875 23.052 100.15 23.1369 98.9993 23C90.2349 22.0933 81.4123 23.5337 72.9993 26C72.7947 26.0599 72.2022 26 71.9993 26Z" fill="#717D94"/>
<path d="M111 26C110.807 26 110.195 26.0596 110 26C108.756 25.619 108.276 25.3025 107 25C105.95 24.7504 104.743 23.0233 105 22C105.256 20.9766 105.94 20.7523 107 21C108.356 21.3223 110.674 21.5947 112 22C113.031 22.3156 113.323 23.9952 113 25C112.738 25.8148 111.834 26 111 26Z" fill="#717D94"/>
<path d="M72.0005 17.0001C71.1664 17.0001 70.2625 16.8148 70.0005 16.0001C69.6772 14.9946 69.9673 13.3147 71.0005 13.0001C72.3474 12.5885 74.6671 12.3157 76.0005 12.0001C77.0452 11.7497 77.7441 11.977 78.0005 13.0001C78.2569 14.0233 77.0508 15.7516 76.0005 16.0001C74.7494 16.2961 74.267 16.6138 73.0005 17.0001C72.8053 17.0595 72.1937 17.0001 72.0005 17.0001Z" fill="#717D94"/>
<path d="M112.001 17C111.798 17 111.205 17.0599 111.001 17C102.586 14.5337 93.7672 13.0943 85.0008 14C83.864 14.1292 83.1252 14.0508 83.0008 13C82.8764 11.9471 83.8723 10.1161 85.0008 10C94.3394 9.0305 104.038 10.3745 113.001 13C114.083 13.3175 114.34 14.9893 114.001 16C113.726 16.8194 112.876 17 112.001 17Z" fill="#717D94"/>
<path d="M16.9996 67.0003C16.1616 67.0003 15.2632 65.9111 14.9996 65.0003C14.6748 63.8767 14.9635 63.3532 15.9996 63.0003C17.9912 62.3224 20.9485 61.4657 22.9996 61.0003C24.0626 60.7588 24.7767 61.8453 24.9996 63.0003C25.2226 64.1529 24.0648 64.7588 22.9996 65.0003C21.0735 65.4377 19.8681 66.3643 17.9996 67.0003C17.8035 67.0666 17.1938 67.0003 16.9996 67.0003Z" fill="#B4B6BC"/>
<path d="M55.9999 67.0004C55.7966 67.0004 55.2049 67.0617 54.9999 67.0004C47.2253 64.6742 39.1124 63.385 30.9999 64.0004C29.8326 64.0789 29.0903 63.0807 28.9999 62.0004C28.9112 60.9192 29.8648 60.0865 30.9999 60.0004C39.6578 59.3523 48.7183 60.5236 56.9999 63.0004C58.0846 63.3252 58.3402 64.9661 57.9999 66.0004C57.724 66.839 56.8773 67.0004 55.9999 67.0004Z" fill="#B4B6BC"/>
<path d="M55.9998 59C55.7992 59 55.2023 59.0615 54.9998 59C42.7533 55.2792 30.2464 55.2792 17.9998 59C16.919 59.3258 15.3335 59.036 14.9998 58C14.6641 56.9631 14.9289 55.3258 15.9998 55C29.0452 51.0371 43.9545 51.0371 56.9998 55C58.0707 55.3258 58.3358 56.9631 57.9998 58C57.7275 58.8409 56.866 59 55.9998 59Z" fill="#B4B6BC"/>
<path d="M17.0008 50C16.1213 50 15.2773 49.8526 15.0008 49C14.6599 47.9483 14.9134 46.3303 16.0008 46C23.6041 43.6939 32.0584 42.6392 40.0008 43C41.1385 43.0526 42.0553 43.8986 42.0008 45C41.9463 46.1034 41.1465 47.0459 40.0008 47C32.5405 46.6599 25.1383 47.8342 18.0008 50C17.7952 50.0621 17.2045 50 17.0008 50Z" fill="#B4B6BC"/>
<path d="M55 50C54.8053 50 54.1964 50.0624 54 50C51.5052 49.2066 49.5817 48.4604 47 48C45.9259 47.8076 44.809 47.0871 45 46C45.1871 44.9138 45.9299 43.8076 47 44C49.7495 44.4908 53.341 45.1549 56 46C57.0392 46.3307 57.326 47.947 57 49C56.7354 49.8538 55.8406 50 55 50Z" fill="#B4B6BC"/>
<path d="M16.9992 42.0003C16.1293 42.0003 15.2728 41.8683 14.9992 41.0003C14.6621 39.9296 14.9237 38.3366 15.9992 38.0003C27.6143 34.3738 40.1768 34.1368 51.9992 37.0003C53.0967 37.2663 54.2666 37.9098 53.9992 39.0003C53.7318 40.0898 52.0888 41.2602 50.9992 41.0003C39.897 38.3083 28.9037 38.5948 17.9992 42.0003C17.7957 42.0636 17.2007 42.0003 16.9992 42.0003Z" fill="#B4B6BC"/>
<path d="M16.9991 34.0002C16.1031 34.0002 15.2808 32.9104 14.9991 32.0002C14.6518 30.8775 14.8913 30.3529 15.9991 30.0002C20.233 28.6537 25.5866 27.4956 29.9991 27.0002C31.1603 26.8577 31.8718 27.833 31.9991 29.0002C32.1264 30.1698 31.154 30.8713 29.9991 31.0002C25.8578 31.4663 21.9717 32.736 17.9991 34.0002C17.7894 34.0665 17.2067 34.0002 16.9991 34.0002Z" fill="#B4B6BC"/>
<path d="M52.0003 32.9999C51.8357 32.9999 51.1667 33.0394 51.0003 32.9999C46.3306 31.8859 41.804 31.0734 37.0003 30.9999C35.8359 30.9819 34.9819 30.1393 35.0003 28.9999C35.0187 27.8616 35.7885 26.9334 37.0003 26.9999C42.1184 27.0796 47.0259 27.8134 52.0003 28.9999C53.1318 29.27 54.276 29.8928 54.0003 30.9999C53.7654 31.9431 52.9485 32.9999 52.0003 32.9999Z" fill="#B4B6BC"/>
<path d="M16.9993 26C16.1238 26 15.2747 25.8194 14.9993 25C14.66 23.9893 14.9168 22.3175 15.9993 22C24.9625 19.3745 34.6586 18.0305 43.9993 19C45.1281 19.1161 46.124 20.9471 45.9993 22C45.8749 23.052 45.142 23.1369 43.9993 23C35.2349 22.0933 26.4123 23.5337 17.9993 26C17.7947 26.0599 17.2022 26 16.9993 26Z" fill="#B4B6BC"/>
<path d="M17.0005 17.0001C16.1664 17.0001 15.2628 16.8148 15.0005 16.0001C14.6772 14.9946 14.9673 13.3147 16.0005 13.0001C17.3474 12.5885 19.6671 12.3157 21.0005 12.0001C22.0432 11.7497 22.7441 11.977 23.0005 13.0001C23.2569 14.0233 22.0508 15.7516 21.0005 16.0001C19.7494 16.2961 19.267 16.6138 18.0005 17.0001C17.8053 17.0595 17.1937 17.0001 17.0005 17.0001Z" fill="#B4B6BC"/>
<path d="M51.9991 16.0001C51.8371 16.0001 51.1628 16.0375 50.9991 16.0001C43.7539 14.3338 36.4082 14.2248 28.9991 15.0001C27.8613 15.132 27.1245 14.0744 26.9991 13.0001C26.8736 11.9256 27.8615 10.1185 28.9991 10.0001C36.8878 9.17028 44.2844 10.2269 51.9991 12.0001C53.1125 12.2563 54.2703 12.9495 53.9991 14.0001C53.7682 14.8948 52.9321 16.0001 51.9991 16.0001Z" fill="#B4B6BC"/>
<path d="M52 38C52.0003 38.8147 53.3358 39.452 54 39L58 36L62 39C62.6642 39.452 64 38.815 64 38V6C64 5.19394 63.7217 4.32753 63 4C59.8872 2.58685 56.2493 1.87621 53 1C52.366 0.829097 51.9998 1.33067 52 2V38Z" fill="#717D94"/>
</svg>
