<svg width="100" height="100" viewBox="0 0 100 100" fill="none" xmlns="http://www.w3.org/2000/svg">
<path d="M19 74.9699H31V68.9731H19C18.2491 68.9731 18 69.2135 18 69.9726V73.9704C18 74.7294 18.2491 74.9699 19 74.9699Z" fill="#B5ADB6"/>
<path d="M81 74.9699H69V68.9731H81C81.7508 68.9731 82 69.2135 82 69.9726V73.9704C82 74.7294 81.7509 74.9699 81 74.9699Z" fill="#B5ADB6"/>
<path d="M81 68.9731H77C77.8148 68.9731 78 69.2135 78 69.9726V73.9704C78 74.7294 77.815 74.9699 77 74.9699H81C81.8148 74.9699 82 74.7295 82 73.9704V69.9726C82 69.2135 81.815 68.9731 81 68.9731Z" fill="#A79BA7"/>
<path d="M43 76.969H32C30.8033 76.969 30 76.1506 30 74.9701V66.9745C30 65.7942 30.8032 64.9756 32 64.9756H43V76.969Z" fill="#A79BA7"/>
<path d="M57 76.969H68C69.1967 76.969 70 76.1506 70 74.9701V66.9745C70 65.7942 69.1968 64.9756 68 64.9756H57V76.969Z" fill="#A79BA7"/>
<path d="M68 64.9756H65C66.1154 64.9756 67 65.7941 67 66.9745V74.9701C67 76.1505 66.1155 76.969 65 76.969H68C69.1154 76.969 70 76.1506 70 74.9701V66.9745C70 65.7941 69.1154 64.9756 68 64.9756Z" fill="#918291"/>
<path d="M63.9991 57.9794C56.5602 57.1429 44.4381 57.1429 36.9991 57.9794C29.7465 58.7946 28.992 51.1178 29.9991 48.9843C31.0061 46.851 32.8987 44.0249 32.9991 41.9881C33.0525 40.9158 33.6696 39.1856 33.9991 37.9903C34.1606 37.4058 34.706 37.4535 34.9991 37.9903C35.653 39.1894 36.4923 40.4293 36.9991 40.9887C37.119 41.1204 37.0148 40.1636 36.9991 39.9892C36.7229 36.9102 38.7016 33.3056 39.9991 30.9941C40.3105 30.441 41.8818 30.3758 41.9991 30.9941C42.3444 32.8289 42.6266 34.2018 42.9991 34.992C43.0694 35.1424 42.947 35.15 42.9991 34.992C43.6023 33.1283 45.9764 31.4257 46.9991 29.9947C47.4564 29.355 47.3946 28.322 47.9991 26.9963V26.9963C48.3613 26.1974 48.719 24.6577 48.9991 23.9979C49.2323 23.4473 51.7659 23.4473 51.9991 23.9979C52.743 25.7539 53.2669 28.9687 53.9991 29.9947C55.0218 31.4257 57.3959 33.1283 57.9991 34.992C58.0512 35.15 57.9288 35.1424 57.9991 34.992C58.1998 34.5655 58.7021 33.8383 58.9991 32.993C59.2532 32.2744 58.8403 31.837 58.9991 30.9941C59.1163 30.3758 60.6876 30.441 60.9991 30.9941C62.2967 33.3056 64.2753 36.9102 63.9991 39.9892C63.9834 40.1636 63.8792 41.1204 63.9991 40.9887C64.5058 40.4293 65.3451 39.1894 65.9991 37.9903C66.2922 37.4535 66.8376 37.4059 66.9991 37.9903C67.3287 39.1856 67.9457 40.9158 67.9991 41.9881C68.0994 44.0249 69.992 46.8509 70.9991 48.9843C72.006 51.1178 71.2518 58.7946 63.9991 57.9794Z" fill="#FE646F"/>
<path d="M56 35.9911H54C53.3358 35.9911 53.2476 35.618 53 34.9916C52.3105 33.2403 50.9016 32.3237 50 30.9938C49.5555 30.3365 48.5878 29.3576 48 27.9954V27.9954C48.353 27.1745 48.727 24.6755 49 23.9976C49.2273 23.4318 49.7727 23.4318 50 23.9976C50.725 25.8018 52.2863 29.9396 53 30.9938C53.9968 32.4642 55.412 34.076 56 35.9911Z" fill="#FD4755"/>
<path d="M63 39.9888H61C60.1036 39.9888 60.0381 38.8486 60 37.9899C59.9146 36.076 58.8425 34.8386 58 32.9926C58.2559 32.2711 58.84 31.8399 59 30.9937C59.1181 30.3729 59.6862 29.439 60 29.9942C61.3071 32.3149 63.2782 36.8976 63 39.9888Z" fill="#FD4755"/>
<path d="M70 49.9836C69.095 47.707 67.0905 43.1616 67 40.9885C66.9524 39.8443 66.2958 39.2654 66 37.9901C65.8551 37.3654 65.2628 36.4185 65 36.9907C64.5926 37.8778 64.4232 39.3759 64 39.9891C64.1152 40.6609 63.9773 40.4433 64 40.9885C64.0905 43.1616 65.095 47.707 66 49.9836C66.7817 51.9501 67.1672 57.9718 63 58.9787C63.21 59.004 63.7975 58.9517 64 58.9787C70.5157 59.8489 70.905 52.2602 70 49.9836Z" fill="#FD4755"/>
<path d="M34 58.9793C34.7088 59.1666 35.0427 59.1191 36 58.9793C39.2028 58.5117 43.7964 58.0316 48 57.9793C43.0318 57.9183 37.9258 58.4603 34 58.9793Z" fill="#FD4755"/>
<path d="M49.0003 37.9902H48.0003C47.5 38.9655 46.8192 39.8943 46.0003 40.9886C44.7207 42.6986 43.5332 44.3075 44.0003 46.9853C44.6462 50.6873 50.0003 49.9837 50.0003 49.9837C50.0003 49.9837 53.3544 50.6873 54.0003 46.9853C54.4676 44.3075 49.0003 37.9902 49.0003 37.9902Z" fill="#FEE97D"/>
<path d="M53 40.9883C51.8452 39.3014 50.5714 38.4017 50 36.9905C49.6905 36.226 49.297 36.2204 49 36.9905C48.8075 37.4896 48.284 37.3958 48 37.99C48.498 39.0365 49.2633 39.9122 50 40.9883C51.2028 42.7456 52.4462 44.2572 52 46.9851C51.6172 49.3251 49.4146 49.8237 48 49.9834C48.865 50.0811 50 49.9834 50 49.9834C50 49.9834 54.3831 50.7562 55 46.9851C55.4462 44.2571 54.2028 42.7454 53 40.9883Z" fill="#FCDD5B"/>
<path d="M65 63.9761C65 63.9761 62.6296 79.9674 51 79.9674C41.8742 79.9674 34 72.8079 34 63.9761C34 55.1444 41.8742 47.9849 51 47.9849C63.6098 47.9849 65 63.9761 65 63.9761Z" fill="#99E6FC"/>
<path d="M50 47.9848C49.3537 47.9848 48.6263 47.9114 48 47.9848C55.9862 48.9215 62 55.8033 62 63.976C62 72.1488 55.9862 79.0304 48 79.9673C48.6264 80.0408 49.3538 79.9673 50 79.9673C58.8865 79.9673 66 72.7898 66 63.976C66 55.1623 58.8865 47.9848 50 47.9848Z" fill="#62DBFB"/>
<path d="M51 75.9698C50.3389 75.9698 49.6337 76.0694 49 75.9698C43.0275 75.0302 38 70.2277 38 63.9763C38 57.0618 43.1075 50.9834 50 50.9834C56.8925 50.9834 63 57.0618 63 63.9763C63 70.8909 55.546 74.4281 51 75.9698Z" fill="#F2FBFF"/>
<path d="M50 50.9831C49.352 50.9831 48.6207 50.8816 48 50.9831C53.7678 51.9259 58 56.7795 58 62.9765C58 69.1736 53.7678 75.0266 48 75.9694C48.6206 76.0709 49.352 75.9694 50 75.9694C56.6695 75.9694 62 69.8404 62 62.9765C62 56.1126 56.6695 50.9831 50 50.9831Z" fill="#DFF6FD"/>
<path d="M50 64.9756C49.4477 64.9756 49 64.4846 49 63.9762V57.9794C49 57.471 49.4477 56.98 50 56.98C50.5523 56.98 51 57.471 51 57.9794V63.9762C51 64.4846 50.5523 64.9756 50 64.9756Z" fill="#FE646F"/>
<path d="M50 71.9718C51.933 71.9718 54 69.9059 54 67.974C54 66.042 51.933 64.9756 50 64.9756C48.067 64.9756 47 66.042 47 67.974C47 69.9059 48.067 71.9718 50 71.9718Z" fill="#6C7FD8"/>
<path d="M40.0003 60.9774C39.9051 60.9774 40.0957 61.0135 40.0003 60.9774L38.0003 59.978C37.5121 59.7939 36.8416 59.5454 37.0003 58.9785C37.1589 58.4116 37.5119 57.7947 38.0003 57.9791L40.0003 58.9785C40.4885 59.1626 41.159 59.4111 41.0003 59.978C40.8725 60.4339 40.3922 60.9774 40.0003 60.9774Z" fill="#918291"/>
<path d="M45.0001 55.9802C44.6888 55.9802 43.1971 56.229 43.0001 55.9802L42.0001 53.9813C41.6732 53.5684 41.5503 52.2824 42.0001 51.9824C42.4498 51.6824 44.6734 51.5695 45.0001 51.9824L46.0001 53.9813C46.327 54.3943 46.4498 55.6802 46.0001 55.9802C45.8215 56.0995 45.2053 55.9802 45.0001 55.9802Z" fill="#918291"/>
<path d="M50 53.9812C49.4477 53.9812 49 53.4874 49 52.9818V50.9829C49 50.4772 49.4477 49.9834 50 49.9834C50.5523 49.9834 51 50.4772 51 50.9829V52.9818C51 53.4874 50.5523 53.9812 50 53.9812Z" fill="#918291"/>
<path d="M56.0001 55.9803C55.795 55.9803 55.1788 56.0994 55.0001 55.9803C54.5503 55.6803 54.6732 54.3943 55.0001 53.9814L56.0001 51.9825C56.3267 51.5695 58.5502 51.6822 59.0001 51.9825C59.4498 52.2825 59.327 53.5684 59.0001 53.9814L58.0001 55.9803C57.8031 56.2291 56.3113 55.9803 56.0001 55.9803Z" fill="#918291"/>
<path d="M60.0003 60.9775C59.6085 60.9775 59.128 60.4342 59.0003 59.978C58.8416 59.4112 59.512 59.1627 60.0003 58.9786L62.0003 57.9791C62.4882 57.7946 62.8418 58.4116 63.0003 58.9786C63.159 59.5454 62.4887 59.7939 62.0003 59.978L60.0003 60.9775C59.905 61.0135 60.0956 60.9775 60.0003 60.9775Z" fill="#918291"/>
<path d="M51 49.9834C43.5445 49.9834 37 56.5233 37 63.9758C37 71.4269 43.5444 76.9687 51 76.9687C58.4556 76.9687 64 71.427 64 63.9758C64 56.5233 58.4555 49.9834 51 49.9834ZM51 74.9698C44.6194 74.9698 39 70.3513 39 63.9758C39 57.599 44.6193 51.9823 51 51.9823C57.3806 51.9823 62 57.599 62 63.9758C62 70.3513 57.3806 74.9698 51 74.9698Z" fill="#B5ADB6"/>
<path d="M55 24.9973C54.4477 24.9973 54 24.5185 54 23.9978V20.9995C54 20.4788 54.4477 20 55 20C55.5523 20 56 20.4788 56 20.9995V23.9978C56 24.5183 55.5523 24.9973 55 24.9973Z" fill="#FE646F"/>
<path d="M42 26.996C42.5523 26.996 43 26.5485 43 25.9965C43 25.4445 42.5523 24.9971 42 24.9971C41.4477 24.9971 41 25.4445 41 25.9965C41 26.5485 41.4477 26.996 42 26.996Z" fill="#FD4755"/>
<circle cx="50" cy="50" r="49.5" stroke="#119FC3"/>
</svg>
