<svg width="120" height="120" viewBox="0 0 120 120" fill="none" xmlns="http://www.w3.org/2000/svg">
<path d="M66 0H114V112H66V0Z" fill="#4D5D79"/>
<path d="M66 0V106H87C93.2133 105.999 98.6065 103.393 103 99C107.393 94.6065 109.999 89.2133 110 83V0H66Z" fill="#717D94"/>
<path d="M0 112H120V120H0V112Z" fill="#4D5D79"/>
<path d="M74 88H106V112H74V88Z" fill="#C7E2FB"/>
<path d="M74 8H86V16H74V8Z" fill="#C7E2FB"/>
<path d="M94 8H106V16H94V8Z" fill="#C7E2FB"/>
<path d="M74 28H86V36H74V28Z" fill="#C7E2FB"/>
<path d="M94 28H106V36H94V28Z" fill="#C7E2FB"/>
<path d="M74 48H86V56H74V48Z" fill="#C7E2FB"/>
<path d="M94 48H106V56H94V48Z" fill="#C7E2FB"/>
<path d="M74 68H86V76H74V68Z" fill="#C7E2FB"/>
<path d="M94 68H106V76H94V68Z" fill="#C7E2FB"/>
<path d="M54 20H66V44H54V20Z" fill="#4D5D79"/>
<path d="M54 20H60V44H54V20Z" fill="#717D94"/>
<path d="M54 68H66V92H54V68Z" fill="#4D5D79"/>
<path d="M54 68H60V92H54V68Z" fill="#717D94"/>
<path d="M0 116H112C113.061 116 114.25 115.75 115 115C115.75 114.25 116 113.061 116 112H0V116Z" fill="#717D94"/>
<path d="M74 8V14H79C80.3924 14 81.0154 12.9846 82 12C82.9846 11.0154 84 10.3924 84 9V8H74Z" fill="#EBF7FE"/>
<path d="M94 8V14H99C100.392 14 101.015 12.9846 102 12C102.985 11.0154 104 10.3924 104 9V8H94Z" fill="#EBF7FE"/>
<path d="M94 28V34H99C100.392 34 101.015 32.9846 102 32C102.985 31.0154 104 30.3924 104 29V28H94Z" fill="#EBF7FE"/>
<path d="M74 28V34H79C80.3924 34 81.0154 32.9846 82 32C82.9846 31.0154 84 30.3924 84 29V28H74Z" fill="#EBF7FE"/>
<path d="M74 48V54H79C80.3924 54 81.0154 52.9846 82 52C82.9846 51.0154 84 50.3924 84 49V48H74Z" fill="#EBF7FE"/>
<path d="M94 48V54H99C100.392 54 101.015 52.9846 102 52C102.985 51.0154 104 50.3924 104 49V48H94Z" fill="#EBF7FE"/>
<path d="M94 68V74H99C100.392 74 101.015 72.9846 102 72C102.985 71.0154 104 70.3924 104 69V68H94Z" fill="#EBF7FE"/>
<path d="M74 68V74H79C80.3924 74 81.0154 72.9846 82 72C82.9846 71.0154 84 70.3924 84 69V68H74Z" fill="#EBF7FE"/>
<path d="M74 106H86C89.9541 106.002 93.5162 104.87 97 103C100.484 101.13 103.817 98.2966 106 95V88H74V106Z" fill="#EBF7FE"/>
<path d="M88 88H92V112H88V88Z" fill="white"/>
<path d="M98 94C98 92.8954 97.1046 92 96 92C94.8954 92 94 92.8954 94 94V98C94 99.1046 94.8954 100 96 100C97.1046 100 98 99.1046 98 98V94Z" fill="white"/>
<path d="M86 102C86 100.895 85.1046 100 84 100C82.8954 100 82 100.895 82 102V106C82 107.105 82.8954 108 84 108C85.1046 108 86 107.105 86 106V102Z" fill="white"/>
<path d="M6 0H54V112H6V0Z" fill="#4D5D79"/>
<path d="M6 0V106H27C33.2133 105.999 38.6065 103.393 43 99C47.3935 94.6065 49.9995 89.2133 50 83V0H6Z" fill="#717D94"/>
<path d="M14 88H46V112H14V88Z" fill="#C7E2FB"/>
<path d="M14 8H26V16H14V8Z" fill="#C7E2FB"/>
<path d="M34 8H46V16H34V8Z" fill="#C7E2FB"/>
<path d="M14 28H26V36H14V28Z" fill="#C7E2FB"/>
<path d="M34 28H46V36H34V28Z" fill="#C7E2FB"/>
<path d="M14 48H26V56H14V48Z" fill="#C7E2FB"/>
<path d="M34 48H46V56H34V48Z" fill="#C7E2FB"/>
<path d="M14 68H26V76H14V68Z" fill="#C7E2FB"/>
<path d="M34 68H46V76H34V68Z" fill="#C7E2FB"/>
<path d="M14 8V14H19C20.3924 14 21.0154 12.9846 22 12C22.9846 11.0154 24 10.3924 24 9V8H14Z" fill="#EBF7FE"/>
<path d="M34 8V14H39C40.3924 14 41.0154 12.9846 42 12C42.9846 11.0154 44 10.3924 44 9V8H34Z" fill="#EBF7FE"/>
<path d="M34 28V34H39C40.3924 34 41.0154 32.9846 42 32C42.9846 31.0154 44 30.3924 44 29V28H34Z" fill="#EBF7FE"/>
<path d="M14 28V34H19C20.3924 34 21.0154 32.9846 22 32C22.9846 31.0154 24 30.3924 24 29V28H14Z" fill="#EBF7FE"/>
<path d="M14 48V54H19C20.3924 54 21.0154 52.9846 22 52C22.9846 51.0154 24 50.3924 24 49V48H14Z" fill="#EBF7FE"/>
<path d="M34 48V54H39C40.3924 54 41.0154 52.9846 42 52C42.9846 51.0154 44 50.3924 44 49V48H34Z" fill="#EBF7FE"/>
<path d="M34 68V74H39C40.3924 74 41.0154 72.9846 42 72C42.9846 71.0154 44 70.3924 44 69V68H34Z" fill="#EBF7FE"/>
<path d="M14 68V74H19C20.3924 74 21.0154 72.9846 22 72C22.9846 71.0154 24 70.3924 24 69V68H14Z" fill="#EBF7FE"/>
<path d="M14 106H26C29.9541 106.002 33.5162 104.87 37 103C40.4838 101.13 43.8166 98.2966 46 95V88H14V106Z" fill="#EBF7FE"/>
<path d="M28 88H32V112H28V88Z" fill="white"/>
<path d="M38 94C38 92.8954 37.1046 92 36 92C34.8954 92 34 92.8954 34 94V98C34 99.1046 34.8954 100 36 100C37.1046 100 38 99.1046 38 98V94Z" fill="white"/>
<path d="M26 102C26 100.895 25.1046 100 24 100C22.8954 100 22 100.895 22 102V106C22 107.105 22.8954 108 24 108C25.1046 108 26 107.105 26 106V102Z" fill="white"/>
</svg>
