<svg width="100" height="100" viewBox="0 0 100 100" fill="none" xmlns="http://www.w3.org/2000/svg">
<path d="M74 24H26C23.5232 24 21.5195 25.2632 20 26.9873L19 31.966V62.8345C19 67.4209 21.4201 70.8005 26 70.8005H37C37.8247 70.8005 38.4168 72.208 39 72.792L49 82.7496H51C51.1192 82.6661 51.8936 82.8562 52 82.7496L61 72.792C61.5832 72.208 63.1753 71.7963 64 71.7963H74C78.5799 71.7963 82 68.4167 82 63.8302V31.966C81.9999 27.3795 78.5799 24 74 24Z" fill="#DFEEFA"/>
<path d="M38 72.7921L48 81.7539C48.8587 82.6155 50.038 83.424 51 82.7496L40 70.8006C39.0517 69.849 37.3414 69.8048 36 69.8048H26C22.6285 69.8048 20 66.2175 20 62.8345V26.9873C18.7352 28.4284 18 29.8948 18 31.9661V62.8345C18 67.3522 21.4977 71.7963 26 71.7963H36C36.8107 71.7962 37.4268 72.2168 38 72.7921Z" fill="#C9DFF7"/>
<path d="M65.9999 42.9191C65.5083 38.4251 61.3987 35.2459 56.9999 34.953C54.3352 34.7757 51.7888 36.2463 49.9999 37.9403C49.6149 38.3048 49.3849 38.3048 48.9999 37.9403C47.211 36.2463 44.6645 34.7757 41.9999 34.953C40.9374 35.0238 39.9457 35.5291 38.9999 35.9488C36.0296 37.2665 33.9999 42.9191 33.9999 42.9191C32.9579 52.4459 45.2682 60.5587 48.9999 62.8342H51.9999C56.6508 59.8126 66.9489 51.597 65.9999 42.9191Z" fill="#FF2334"/>
<path d="M35.0007 41.9233C35.2809 39.4665 37.129 37.4463 39.0007 35.9487C35.957 37.2473 33.383 40.5637 33.0007 43.9148C31.9314 53.2904 45.171 61.5905 49.0007 63.8299C49.6616 64.2163 50.3397 64.2163 51.0007 63.8299C51.3412 63.6308 51.5351 63.1242 52.0007 62.8341C49.5593 61.4806 33.8436 52.0688 35.0007 41.9233Z" fill="#FF5F7A"/>
<circle cx="50" cy="50" r="49.5" stroke="#119FC3"/>
</svg>
