<svg width="24" height="24" viewBox="0 0 24 24" fill="none" xmlns="http://www.w3.org/2000/svg">
<g clip-path="url(#clip0_432_5843)">
<path d="M14.9988 5C15.9787 5.1908 17.2929 5.29545 17.9988 6C18.7047 6.70455 18.8077 8.02205 18.9988 9M14.9988 1C17.0345 1.22572 18.5496 2.55538 19.9988 4C21.448 5.44462 22.7701 6.96849 22.9988 9M21.9988 17V20C22 20.2788 22.1107 20.7445 21.9988 21C21.8869 21.2555 21.2047 20.8115 20.9988 21C20.7929 21.1885 21.2635 21.9107 20.9988 22C20.7342 22.0893 20.2771 22.0251 19.9988 22C16.9119 21.6652 13.604 20.6862 10.9988 19C8.57499 17.4628 6.53902 15.4192 4.99882 13C3.30344 10.388 2.3281 7.09483 1.99882 4C1.97375 3.72312 1.90991 3.26346 1.99882 3C2.08773 2.73654 2.81103 3.20532 2.99882 3C3.18661 2.79468 2.74403 2.11233 2.99882 2C3.25361 1.88767 3.72028 2.00026 3.99882 2H6.99882C7.48566 1.99522 7.62968 1.68315 7.99882 2C8.36796 2.31685 8.93068 3.51885 8.99882 4C9.12584 4.96126 9.6592 6.0916 9.99882 7C10.1338 7.35837 10.0788 7.62557 9.99882 8C9.91881 8.37443 9.26854 8.72777 8.99882 9L7.99882 10C9.42689 12.5067 11.4873 14.5747 13.9988 16L14.9988 15C15.2716 14.7308 15.6237 14.0799 15.9988 14C16.374 13.9201 16.6398 13.8653 16.9988 14C17.909 14.339 19.0357 14.8732 19.9988 15C20.4861 15.0686 21.6807 15.6252 21.9988 16C22.317 16.3748 22.011 16.509 21.9988 17Z" stroke="#404040" stroke-width="2" stroke-linecap="round" stroke-linejoin="round"/>
</g>
<defs>
<clipPath id="clip0_432_5843">
<rect width="24" height="24" fill="white"/>
</clipPath>
</defs>
</svg>
