<svg width="128" height="128" viewBox="0 0 128 128" fill="none" xmlns="http://www.w3.org/2000/svg">
<path d="M107 11H21C18.1774 11 16 13.1688 16 16V123C16 125.831 18.1774 128 21 128H107C109.823 128 112 125.831 112 123V16C112 13.1691 109.823 11 107 11Z" fill="#64798A"/>
<path d="M107 18H22V123H107V18Z" fill="#EBF0F3"/>
<path d="M107 15H22V120H107V15Z" fill="white"/>
<path d="M91 11H38V15H91V11Z" fill="#3A556A"/>
<path d="M91 15H38V24H91V15Z" fill="#E1E6E9"/>
<path d="M84 8H71C70.8766 3.68621 68.2017 0 64 0C59.797 0 56.1234 3.68621 56 8H43C41.8395 8 41 8.80046 41 10V21H86V10C85.9997 8.80046 85.1605 8 84 8Z" fill="#DC8744"/>
<path d="M35 56H27V67H35V56Z" fill="#E56353"/>
<path d="M46 43H38V67H46V43Z" fill="#27A2DB"/>
<path d="M57 30H49V67H57V30Z" fill="#44C4A1"/>
<path d="M68 47H60V66H68V47Z" fill="#FCD462"/>
<path d="M35 63H27V67H35V63Z" fill="#D15241"/>
<path d="M46 63H38V67H46V63Z" fill="#2D93BA"/>
<path d="M57 63H49V67H57V63Z" fill="#3EA69B"/>
<path d="M68 63H60V67H68V63Z" fill="#F6C358"/>
<path d="M101 73H27V76H101V73Z" fill="#D5D6DB"/>
<path d="M101 33H76V36H101V33Z" fill="#D5D6DB"/>
<path d="M101 43H76V46H101V43Z" fill="#D5D6DB"/>
<path d="M101 53H76V56H101V53Z" fill="#D5D6DB"/>
<path d="M101 63H76V66H101V63Z" fill="#D5D6DB"/>
<path d="M101 83H27V86H101V83Z" fill="#D5D6DB"/>
<path d="M101 92H27V117H101V92Z" fill="#D5D6DB"/>
<path d="M101 91H27V116H101V91Z" fill="#EBF0F3"/>
<path d="M28.9992 116C28.8394 116 28.1293 116.114 27.9992 116C27.7095 115.747 27.7501 115.294 27.9992 115L37.9992 104C37.7095 103.835 38.2158 103.744 37.9992 104L48.9992 110L57.9992 99.9999C58.2186 99.7689 58.7178 99.8334 58.9992 99.9999L69.9992 106L77.9992 96.9999C78.2104 96.7606 78.7258 95.8528 78.9992 95.9999L88.9992 102L97.9992 93.9999C98.2943 93.7482 98.7529 93.7058 98.9992 93.9999C99.2483 94.2956 99.2889 94.7469 98.9992 94.9999L89.9992 103C89.7826 103.187 89.2512 103.129 88.9992 103L78.9992 97.9999L70.9992 108C70.7798 108.247 70.286 108.166 69.9992 108L58.9992 101L48.9992 111C48.7826 111.228 49.278 111.157 48.9992 111L37.9992 105L28.9992 116C29.1941 116 28.8611 116.162 28.9992 116Z" fill="#44C4A1"/>
<path d="M28.9998 116C28.7373 116 28.1163 116.26 27.9998 116C27.8401 115.646 27.6506 115.161 27.9998 115L39.9998 109C39.8184 108.923 40.1759 108.916 39.9998 109L48.9998 113L56.9998 108C56.8266 107.953 57.1568 107.915 56.9998 108L67.9998 111L78.9998 105C78.8292 104.96 79.1568 104.905 78.9998 105L90.9998 108L94.9998 106C95.314 105.783 95.7833 105.681 95.9998 106C96.2164 106.321 96.3166 106.779 95.9998 107L91.9998 109C91.8375 109.113 91.1842 109.044 90.9998 109L78.9998 106L68.9998 113C68.8375 113.098 68.1839 113.05 67.9998 113L56.9998 110L48.9998 114C48.8184 114.102 48.1922 114.081 47.9998 114L39.9998 111L28.9998 116C29.0972 116 28.9077 116.042 28.9998 116Z" fill="#E56353"/>
</svg>
