<svg width="71" height="73" viewBox="0 0 71 73" fill="none" xmlns="http://www.w3.org/2000/svg">
<path d="M39.3707 23.3217L39.5201 24.1275L40.1145 23.5634L55.5192 8.94595L46.3775 28.1137L46.0247 28.8533L46.8372 28.7464L67.8917 25.9753L49.2294 36.109L48.5093 36.5L49.2294 36.891L67.8917 47.0247L46.8372 44.2536L46.0247 44.1467L46.3775 44.8863L55.5192 64.054L40.1145 49.4366L39.5201 48.8725L39.3707 49.6783L35.5 70.5587L31.6293 49.6783L31.4799 48.8725L30.8855 49.4366L15.4808 64.054L24.6225 44.8863L24.9753 44.1467L24.1628 44.2536L3.10827 47.0247L21.7706 36.891L22.4907 36.5L21.7706 36.109L3.10827 25.9753L24.1628 28.7464L24.9753 28.8533L24.6225 28.1137L15.4808 8.94595L30.8855 23.5634L31.4799 24.1275L31.6293 23.3217L35.5 2.44132L39.3707 23.3217Z" fill="#FFE600" stroke="black" stroke-width="0.889961"/>
</svg>
